# xmcd CD database file
#
# Track frame offsets:
#	150
#	21097
#	56422
#	76190
#	88817
#	110810
#	134957
#	151077
#	193940
#	210790
#	234232
#
# Disc length: 3608 seconds
#
# Revision: 0
# Processed by: cddbd v1.5.2PL0 Copyright (c) Steve Scherf et al.
# Submitted via: CDex 1.77
#
DISCID=8c0e160b
DTITLE=Matt Catingub Big Band - I'm Getting Cement All Over Ewe
DYEAR=1990
DGENRE=Jazz
TTITLE0=I'm Getting Cement All Over Ewe
TTITLE1=Even More Blues, But My Abscessed Tooth is Fine
TTITLE2=Miss Ella
TTITLE3=Dearly Beloved
TTITLE4=Change Partners
TTITLE5=Sciatica Stomp
TTITLE6=Funny
TTITLE7=Prelude 'N Blues
TTITLE8=I Got Rhythm
TTITLE9=Simple Pleasures
TTITLE10=Donna Leib
EXTD=YEAR: 1990
EXTT0=
EXTT1=
EXTT2=
EXTT3=
EXTT4=
EXTT5=
EXTT6=
EXTT7=
EXTT8=
EXTT9=
EXTT10=
PLAYORDER=
